<svg id="svg" version="1.1" xmlns="http://www.w3.org/2000/svg" xmlns:xlink="http://www.w3.org/1999/xlink" width="400" height="400" viewBox="0, 0, 400,400"><g id="svgg"><path id="path0" d="M174.000 16.045 C 174.000 16.270,173.661 16.346,173.247 16.215 C 172.151 15.867,171.981 16.677,172.028 22.052 C 172.057 25.350,172.202 26.722,172.503 26.536 C 172.765 26.374,172.848 26.498,172.713 26.849 C 172.579 27.198,172.751 27.457,173.145 27.501 C 173.505 27.541,174.250 27.654,174.800 27.753 C 175.350 27.852,179.175 27.948,183.300 27.967 L 190.800 28.000 190.800 31.024 C 190.800 32.937,190.947 33.956,191.200 33.800 C 191.420 33.664,191.600 33.724,191.600 33.933 C 191.600 34.142,193.085 34.349,194.900 34.392 C 196.715 34.436,198.436 34.485,198.724 34.502 C 199.013 34.519,199.503 35.026,199.815 35.628 C 200.126 36.230,201.015 37.115,201.790 37.594 C 203.561 38.689,203.658 39.141,201.901 38.115 C 201.187 37.698,200.197 36.755,199.701 36.019 C 198.648 34.456,198.477 35.129,199.491 36.847 C 199.871 37.490,200.931 38.379,201.845 38.822 C 203.511 39.628,204.154 40.290,205.595 42.684 C 206.021 43.390,207.051 44.320,207.884 44.751 C 208.718 45.181,209.612 45.886,209.872 46.317 C 210.207 46.873,210.671 47.056,211.472 46.948 C 212.447 46.816,212.410 46.864,211.200 47.298 C 209.710 47.832,209.801 47.563,209.646 51.900 L 209.600 53.200 197.974 53.200 C 186.299 53.200,184.590 53.386,185.058 54.606 C 185.183 54.933,185.070 55.200,184.806 55.200 C 184.476 55.200,184.369 55.858,184.463 57.300 L 184.600 59.400 182.600 59.325 C 178.928 59.187,170.742 59.716,171.278 60.057 C 171.641 60.287,171.521 60.390,170.880 60.394 C 168.715 60.408,166.875 62.247,166.753 64.519 C 166.716 65.210,166.639 65.141,166.400 64.200 L 166.095 63.000 166.047 64.300 L 166.000 65.600 162.800 65.600 C 161.040 65.600,159.600 65.745,159.600 65.921 C 159.600 66.098,158.594 66.233,157.365 66.221 C 154.390 66.193,153.400 67.249,153.736 70.092 C 153.860 71.134,153.835 71.969,153.680 71.946 C 151.888 71.685,144.314 72.090,144.800 72.421 C 145.233 72.716,144.981 72.757,143.896 72.570 C 141.662 72.183,139.706 75.600,141.159 77.351 C 141.481 77.738,141.150 77.874,139.701 77.949 C 138.670 78.002,137.641 78.181,137.413 78.345 C 137.186 78.510,136.517 78.627,135.927 78.604 C 135.337 78.582,134.942 78.707,135.051 78.882 C 135.159 79.057,135.057 79.200,134.824 79.200 C 134.569 79.200,134.400 80.237,134.400 81.800 L 134.400 84.400 132.000 84.450 C 128.609 84.521,128.682 84.497,128.517 85.600 C 128.435 86.150,128.300 87.050,128.217 87.600 C 128.133 88.150,128.050 89.087,128.032 89.682 C 128.001 90.745,127.947 90.767,125.100 90.882 L 122.200 91.000 122.089 96.657 L 121.979 102.314 123.249 102.757 C 123.948 103.001,126.734 103.200,129.442 103.200 L 134.364 103.200 134.634 101.700 C 134.989 99.721,135.917 98.166,137.050 97.650 C 137.876 97.274,138.777 97.130,143.600 96.604 C 146.294 96.310,146.420 96.187,147.010 93.263 C 147.423 91.216,148.872 90.800,155.587 90.800 C 159.428 90.800,161.200 90.660,161.200 90.357 C 161.200 90.080,161.588 90.011,162.234 90.173 C 162.838 90.324,163.171 90.277,163.036 90.058 C 162.909 89.852,163.083 89.577,163.423 89.446 C 163.777 89.311,163.937 89.378,163.797 89.605 C 163.298 90.413,164.378 89.967,164.971 89.120 C 165.399 88.509,165.453 88.156,165.149 87.968 C 164.845 87.780,164.866 87.645,165.219 87.527 C 165.594 87.402,165.618 87.161,165.311 86.612 C 164.282 84.773,165.504 84.469,174.489 84.329 C 184.635 84.171,184.200 84.419,184.378 78.700 C 184.398 78.076,184.887 78.000,188.861 78.000 L 193.323 78.000 194.800 79.600 C 196.542 81.487,196.757 81.521,198.369 80.164 C 199.931 78.850,199.918 78.490,198.300 78.289 C 197.585 78.201,201.230 78.125,206.400 78.121 C 211.570 78.117,215.080 78.223,214.200 78.358 L 212.600 78.602 213.869 79.901 C 215.401 81.468,215.601 81.484,217.169 80.164 C 218.731 78.850,218.718 78.490,217.100 78.289 C 216.385 78.201,218.865 78.099,222.611 78.064 L 229.421 78.000 229.400 79.568 C 229.389 80.456,229.544 81.035,229.758 80.903 C 229.966 80.774,230.028 80.951,229.895 81.297 C 229.019 83.579,232.895 84.324,245.900 84.373 L 253.200 84.400 253.200 86.654 C 253.200 90.387,253.937 90.800,260.597 90.800 C 264.330 90.800,266.043 90.945,266.249 91.280 C 266.654 91.934,266.700 93.600,266.313 93.600 C 266.141 93.600,266.014 93.915,266.032 94.300 C 266.050 94.698,266.148 94.790,266.261 94.512 C 266.417 94.127,266.571 94.127,266.987 94.512 C 267.278 94.780,267.447 95.114,267.363 95.254 C 267.141 95.622,269.229 96.372,270.400 96.345 C 270.950 96.332,271.760 96.415,272.200 96.530 C 272.640 96.645,274.171 96.753,275.603 96.769 L 278.206 96.800 278.068 98.530 C 277.991 99.495,278.202 100.909,278.545 101.730 L 279.159 103.200 281.950 103.200 C 284.272 103.200,284.772 103.318,284.924 103.900 C 285.095 104.553,285.110 104.552,285.154 103.884 C 285.191 103.302,285.300 103.262,285.739 103.672 C 286.036 103.950,286.196 104.494,286.094 104.883 C 285.979 105.323,286.434 106.114,287.301 106.981 C 288.067 107.747,288.595 108.471,288.476 108.591 C 288.356 108.710,288.830 108.694,289.529 108.554 C 290.354 108.389,290.800 108.458,290.800 108.750 C 290.800 108.997,290.935 109.179,291.100 109.153 C 291.265 109.127,292.615 109.127,294.100 109.153 L 296.800 109.200 296.806 111.700 C 296.812 114.175,297.183 115.353,297.985 115.450 C 298.213 115.478,299.480 115.522,300.800 115.550 L 303.200 115.600 303.200 118.557 C 303.200 121.993,303.207 122.000,307.033 122.000 L 309.600 122.000 309.529 124.595 C 309.435 127.985,309.262 127.842,313.600 127.950 L 315.600 128.000 315.600 130.751 C 315.600 132.464,315.789 133.659,316.100 133.917 C 316.699 134.414,316.597 134.400,319.600 134.400 L 322.000 134.400 322.000 140.357 C 322.000 147.147,321.804 146.800,325.633 146.800 C 328.360 146.800,328.049 146.002,328.206 153.400 C 328.316 158.550,328.388 159.091,328.967 159.081 C 329.205 159.077,330.525 159.102,331.900 159.137 L 334.400 159.200 334.400 167.600 C 334.400 173.245,334.539 176.000,334.824 176.000 C 335.057 176.000,335.119 175.792,334.962 175.538 C 334.785 175.252,334.852 175.185,335.139 175.362 C 335.487 175.577,335.489 175.867,335.147 176.524 C 334.897 177.006,334.830 177.271,334.998 177.114 C 335.167 176.957,335.687 177.032,336.153 177.282 C 336.619 177.532,337.810 177.784,338.800 177.842 C 339.790 177.900,340.735 177.959,340.900 177.974 C 341.065 177.988,341.220 179.755,341.245 181.900 L 341.290 185.800 341.834 183.600 L 342.378 181.400 342.202 183.546 C 341.710 189.568,348.632 191.935,351.481 186.718 C 352.508 184.836,352.519 174.063,351.497 170.742 C 350.839 168.603,348.684 166.000,347.572 166.000 C 347.352 166.000,347.797 166.548,348.560 167.219 C 349.986 168.471,351.451 171.529,351.075 172.471 C 350.937 172.816,350.852 172.751,350.832 172.284 C 350.780 171.120,349.320 168.573,348.118 167.550 L 347.000 166.600 346.869 154.400 C 346.733 141.705,346.665 140.800,345.856 140.800 C 345.586 140.800,345.156 140.015,344.899 139.056 C 344.597 137.924,343.931 136.871,343.003 136.056 C 342.216 135.365,341.677 134.800,341.806 134.800 C 342.441 134.800,344.428 136.100,345.013 136.898 L 345.674 137.800 345.387 136.800 C 345.068 135.691,341.750 131.600,341.169 131.600 C 340.966 131.600,340.800 129.800,340.800 127.600 C 340.800 124.819,340.658 123.600,340.333 123.600 C 340.077 123.600,339.978 123.489,340.114 123.352 C 340.775 122.692,339.094 122.000,336.829 122.000 L 334.400 122.000 334.400 119.024 C 334.400 117.387,334.244 115.951,334.053 115.832 C 333.861 115.714,333.595 114.928,333.460 114.086 C 333.152 112.159,331.697 110.746,329.935 110.663 C 328.272 110.585,328.063 110.129,328.028 106.500 C 328.004 104.028,327.897 103.595,327.300 103.568 C 326.882 103.550,326.801 103.456,327.100 103.335 C 327.794 103.055,327.730 101.600,327.024 101.600 C 326.707 101.600,326.337 101.422,326.203 101.205 C 326.063 100.978,326.223 100.911,326.579 101.047 C 326.987 101.204,327.200 101.057,327.200 100.619 C 327.200 100.253,327.022 100.063,326.805 100.197 C 326.567 100.344,326.517 100.154,326.679 99.721 C 326.918 99.084,326.870 99.065,326.265 99.557 C 325.889 99.863,325.465 99.998,325.324 99.857 C 325.182 99.716,325.247 99.600,325.467 99.600 C 325.687 99.600,325.867 99.333,325.867 99.006 C 325.867 98.567,325.733 98.524,325.351 98.841 C 325.067 99.076,324.647 99.153,324.418 99.011 C 323.842 98.655,323.893 97.710,324.500 97.465 C 324.794 97.346,324.706 97.250,324.287 97.232 C 323.896 97.214,323.470 97.475,323.341 97.810 C 322.780 99.271,322.000 97.509,322.000 94.784 C 322.000 91.314,321.789 90.800,320.368 90.800 C 318.938 90.800,315.629 87.657,315.507 86.184 C 315.459 85.606,315.173 85.197,314.813 85.194 C 314.271 85.188,314.270 85.143,314.800 84.800 C 315.216 84.531,314.449 84.410,312.300 84.406 L 309.200 84.400 309.200 81.800 C 309.200 80.237,309.031 79.200,308.776 79.200 C 308.543 79.200,308.456 79.034,308.581 78.830 C 308.707 78.627,308.493 78.378,308.105 78.277 C 307.717 78.176,311.819 78.072,317.220 78.046 C 328.466 77.993,328.000 78.146,328.000 74.520 L 328.000 72.000 331.013 72.000 C 333.993 72.000,335.303 71.213,334.525 69.892 C 334.208 69.356,338.156 65.807,339.165 65.721 C 340.726 65.587,340.787 65.119,340.794 53.343 C 340.799 43.499,340.721 42.055,340.175 41.846 C 339.831 41.714,339.661 41.424,339.798 41.203 C 339.956 40.947,339.017 40.800,337.224 40.800 L 334.400 40.800 334.400 38.049 C 334.400 34.733,334.206 34.537,330.809 34.432 C 327.688 34.335,328.047 34.728,327.961 31.322 C 327.890 28.506,327.878 28.476,326.695 28.239 C 324.689 27.838,304.800 27.963,304.800 28.377 C 304.800 28.584,304.440 28.685,304.000 28.600 C 303.560 28.515,303.200 28.601,303.200 28.791 C 303.200 28.981,302.668 29.253,302.019 29.396 C 300.159 29.804,298.916 31.044,298.197 33.208 C 297.832 34.307,297.364 35.101,297.157 34.973 C 296.950 34.845,296.806 34.889,296.837 35.070 C 297.000 36.008,296.745 36.465,296.179 36.247 C 295.838 36.116,295.657 36.168,295.777 36.363 C 296.027 36.768,294.890 37.303,294.409 37.006 C 293.924 36.706,293.077 37.918,292.952 39.089 C 292.772 40.779,291.611 41.694,291.560 40.186 C 291.521 39.016,291.516 39.014,291.200 40.000 C 291.024 40.550,290.862 45.545,290.840 51.100 C 290.800 61.100,290.660 62.077,289.498 60.419 C 289.198 59.990,288.602 59.645,288.176 59.653 C 284.692 59.719,280.829 59.477,280.998 59.204 C 281.111 59.020,280.489 58.269,279.614 57.535 C 278.338 56.464,278.006 55.902,277.930 54.689 C 277.866 53.676,277.671 53.241,277.338 53.368 C 277.028 53.487,276.927 53.334,277.069 52.963 C 277.195 52.635,277.141 52.396,276.949 52.431 C 276.124 52.582,275.936 52.359,276.408 51.790 C 276.686 51.455,276.798 51.065,276.657 50.924 C 276.516 50.782,276.400 50.877,276.400 51.133 C 276.400 51.390,276.214 51.600,275.986 51.600 C 275.706 51.600,275.701 51.359,275.970 50.855 C 276.546 49.779,274.722 48.034,273.812 48.790 C 273.236 49.268,273.015 49.074,273.175 48.232 C 273.214 48.030,272.965 48.097,272.623 48.381 C 272.105 48.811,272.000 48.794,272.000 48.282 C 272.000 47.944,272.225 47.563,272.500 47.437 C 272.775 47.311,272.595 47.308,272.100 47.431 C 271.573 47.561,271.200 47.470,271.200 47.209 C 271.200 46.965,270.975 46.794,270.700 46.830 C 270.425 46.866,269.165 46.873,267.900 46.847 L 265.600 46.800 265.600 44.200 C 265.600 42.637,265.431 41.600,265.176 41.600 C 264.943 41.600,264.864 41.420,265.000 41.200 C 265.159 40.943,263.743 40.800,261.039 40.800 L 256.831 40.800 255.015 39.036 C 253.966 38.016,253.200 36.907,253.200 36.407 C 253.200 34.818,252.394 34.505,248.107 34.432 L 244.056 34.362 242.452 32.757 C 241.389 31.695,240.805 30.727,240.724 29.892 C 240.562 28.245,239.940 28.090,233.318 28.040 L 228.035 28.000 227.918 25.100 L 227.800 22.200 217.224 22.000 L 206.648 21.800 207.976 20.200 L 209.305 18.600 207.638 20.300 C 206.312 21.652,205.687 22.000,204.586 22.000 L 203.200 22.000 203.200 19.462 C 203.200 15.362,204.063 15.579,187.859 15.610 C 178.713 15.628,174.000 15.776,174.000 16.045 M303.398 30.003 C 303.261 30.224,302.620 30.680,301.972 31.014 C 301.325 31.349,300.309 32.383,299.715 33.311 C 298.941 34.519,298.593 34.808,298.493 34.327 C 298.270 33.265,299.518 31.238,300.919 30.384 C 302.271 29.559,303.819 29.322,303.398 30.003 M255.394 40.739 C 255.130 41.003,253.200 39.170,253.200 38.655 C 253.200 38.433,253.738 38.766,254.396 39.396 C 255.054 40.026,255.503 40.631,255.394 40.739 M207.992 42.592 C 209.903 44.539,209.952 45.390,208.076 44.054 C 207.020 43.302,205.600 41.559,205.600 41.014 C 205.600 40.440,206.393 40.963,207.992 42.592 M275.339 49.532 C 275.703 49.935,275.881 50.386,275.733 50.533 C 275.436 50.830,274.000 49.674,274.000 49.138 C 274.000 48.571,274.639 48.759,275.339 49.532 M279.600 58.200 C 280.710 59.381,279.967 59.567,278.800 58.400 C 278.360 57.960,278.000 57.510,278.000 57.400 C 278.000 56.912,278.736 57.280,279.600 58.200 M166.788 61.222 C 166.546 61.674,166.436 62.259,166.542 62.522 C 166.671 62.838,166.748 62.807,166.768 62.431 C 166.786 62.119,167.098 61.534,167.462 61.131 C 167.835 60.719,167.929 60.400,167.676 60.400 C 167.430 60.400,167.030 60.770,166.788 61.222 M156.486 67.002 C 155.678 67.353,154.953 68.078,154.602 68.886 C 154.115 70.006,154.029 70.065,154.016 69.282 C 153.995 68.098,155.698 66.395,156.882 66.416 C 157.665 66.429,157.606 66.515,156.486 67.002 M338.073 67.399 C 337.822 67.951,337.028 68.761,336.308 69.199 C 335.589 69.638,335.201 69.998,335.446 69.999 C 336.474 70.002,339.227 67.094,338.697 66.564 C 338.605 66.472,338.324 66.848,338.073 67.399 M143.298 73.066 C 143.021 73.177,142.889 73.421,143.004 73.607 C 143.119 73.793,143.002 74.075,142.745 74.234 C 142.452 74.415,142.384 74.350,142.562 74.062 C 142.719 73.808,142.672 73.600,142.457 73.600 C 142.242 73.600,141.976 73.825,141.865 74.100 C 141.739 74.412,141.651 74.349,141.632 73.933 C 141.599 73.244,142.158 72.863,143.200 72.863 C 143.605 72.863,143.637 72.929,143.298 73.066 M351.887 179.495 C 351.795 180.103,351.717 179.700,351.714 178.600 C 351.711 177.500,351.787 177.003,351.882 177.495 C 351.977 177.986,351.979 178.886,351.887 179.495 M345.812 188.287 C 347.786 189.406,347.329 189.486,345.192 188.396 C 344.326 187.954,343.343 187.063,343.008 186.416 C 342.112 184.683,342.268 184.487,343.312 186.035 C 343.813 186.779,344.938 187.793,345.812 188.287 M350.835 186.335 C 350.329 187.280,348.485 188.801,347.846 188.799 C 347.601 188.798,347.989 188.438,348.708 187.999 C 349.428 187.561,350.222 186.751,350.473 186.199 C 350.724 185.648,351.005 185.272,351.097 185.364 C 351.189 185.456,351.071 185.893,350.835 186.335 M95.027 211.872 C 92.528 215.053,92.110 216.085,91.783 219.877 C 91.494 223.229,92.139 228.400,92.845 228.400 C 93.040 228.400,93.200 228.642,93.200 228.938 C 93.200 229.234,93.583 229.819,94.052 230.238 C 96.733 232.636,96.800 232.986,96.800 244.630 C 96.800 255.695,97.223 259.216,98.618 259.752 C 98.938 259.874,99.200 260.251,99.200 260.587 C 99.200 260.924,99.500 261.200,99.867 261.200 C 100.233 261.200,100.424 261.309,100.291 261.442 C 100.158 261.575,100.449 262.070,100.938 262.542 C 102.831 264.370,103.078 265.202,103.278 270.415 C 103.518 276.653,103.886 277.401,106.924 277.814 C 109.459 278.159,109.586 278.340,109.594 281.603 C 109.597 283.034,109.761 284.765,109.957 285.449 C 110.153 286.133,110.171 286.924,109.996 287.206 C 109.669 287.736,110.389 288.843,110.872 288.551 C 111.022 288.461,111.275 288.598,111.434 288.855 C 111.615 289.148,111.550 289.216,111.262 289.038 C 111.008 288.881,110.800 288.922,110.800 289.128 C 110.800 289.744,113.110 290.509,114.168 290.244 C 115.447 289.923,115.577 290.196,115.646 293.344 C 115.677 294.796,115.860 295.887,116.051 295.768 C 116.243 295.650,116.400 295.833,116.400 296.176 C 116.400 296.519,116.535 296.779,116.700 296.753 C 116.865 296.727,118.120 296.727,119.490 296.753 L 121.979 296.800 122.090 302.900 C 122.171 307.421,122.329 309.013,122.700 309.050 C 122.975 309.078,124.256 309.123,125.546 309.150 L 127.893 309.200 128.094 312.014 C 128.340 315.456,128.225 315.341,131.621 315.533 L 134.400 315.690 134.400 318.365 C 134.400 321.724,134.679 322.000,138.080 322.000 L 140.800 322.000 140.800 324.753 C 140.800 327.901,140.900 327.985,144.700 327.995 C 146.963 328.000,146.915 327.941,146.810 330.645 C 146.771 331.656,146.980 332.523,147.354 332.897 C 147.688 333.231,147.850 333.616,147.714 333.752 C 147.578 333.889,147.722 334.040,148.033 334.089 C 148.345 334.139,144.117 334.274,138.638 334.389 C 129.082 334.591,128.669 334.633,128.514 335.400 C 128.308 336.419,128.054 338.739,128.024 339.882 C 128.002 340.698,127.780 340.774,125.100 340.882 L 122.200 341.000 122.200 359.400 L 122.200 377.800 125.300 377.917 C 128.601 378.041,128.757 378.180,128.430 380.700 C 128.394 380.975,128.542 381.200,128.759 381.200 C 128.977 381.200,129.085 381.558,129.001 381.995 C 128.805 383.015,129.900 384.119,130.860 383.869 C 131.267 383.762,131.600 383.833,131.600 384.027 C 131.600 384.502,156.303 384.480,156.597 384.005 C 156.723 383.801,157.076 383.731,157.382 383.848 C 157.690 383.967,158.131 383.703,158.369 383.257 C 158.935 382.200,158.914 381.886,158.300 382.245 C 158.025 382.406,158.138 382.152,158.550 381.682 C 159.011 381.156,159.214 380.498,159.077 379.975 C 158.662 378.385,159.140 378.000,161.543 377.995 C 165.394 377.985,165.469 377.927,165.560 374.869 C 165.679 370.841,165.738 370.667,167.103 370.313 C 167.780 370.138,168.799 369.442,169.367 368.766 C 170.507 367.411,170.777 367.684,169.749 369.152 C 169.390 369.663,168.535 370.342,167.849 370.661 L 166.600 371.240 167.800 370.990 C 169.527 370.631,170.685 369.372,171.241 367.251 C 171.802 365.108,172.186 356.619,171.766 355.654 C 171.609 355.294,171.523 354.575,171.575 354.055 C 171.629 353.511,171.500 353.214,171.271 353.356 C 171.052 353.492,170.485 352.803,170.012 351.825 C 169.356 350.470,168.713 349.836,167.305 349.154 C 165.740 348.397,165.576 348.214,166.229 347.958 C 166.903 347.694,166.912 347.653,166.300 347.628 C 165.915 347.613,165.600 347.331,165.600 347.003 C 165.600 346.600,165.893 346.460,166.500 346.573 C 166.995 346.665,168.435 346.754,169.700 346.770 L 172.000 346.800 172.006 349.900 C 172.010 352.049,172.131 352.816,172.400 352.400 C 172.744 351.867,172.788 351.868,172.794 352.403 C 172.799 352.862,173.394 353.035,175.290 353.126 C 178.267 353.270,177.969 353.019,178.279 355.635 C 178.670 358.942,179.135 359.171,185.500 359.187 L 190.800 359.200 190.800 362.224 C 190.800 364.137,190.947 365.156,191.200 365.000 C 191.420 364.864,191.600 364.943,191.600 365.176 C 191.600 365.409,191.735 365.579,191.900 365.553 C 192.065 365.527,194.675 365.527,197.700 365.553 L 203.200 365.600 203.200 368.171 C 203.200 371.952,203.288 372.000,210.154 372.000 L 215.850 372.000 215.712 373.843 C 215.636 374.856,215.775 375.929,216.021 376.225 C 216.267 376.522,216.336 376.981,216.173 377.244 C 215.981 377.554,216.046 377.619,216.356 377.427 C 216.619 377.264,217.084 377.338,217.388 377.590 C 217.692 377.842,218.179 378.016,218.470 377.977 C 218.762 377.937,223.950 377.926,230.000 377.952 L 241.000 377.999 240.860 380.481 C 240.729 382.813,240.763 382.929,241.426 382.382 C 242.075 381.846,242.095 381.868,241.673 382.660 C 241.198 383.551,241.983 384.305,242.836 383.778 C 243.036 383.654,243.200 383.735,243.200 383.959 C 243.200 384.562,270.724 384.561,271.450 383.958 C 272.218 383.321,272.212 373.712,271.443 372.700 C 270.965 372.070,270.021 372.000,262.056 372.000 L 253.200 372.000 253.200 369.462 C 253.200 366.047,252.694 365.605,248.769 365.586 L 245.800 365.571 245.000 363.886 C 244.442 362.709,243.718 361.958,242.605 361.400 C 241.728 360.960,240.807 360.342,240.558 360.028 C 240.229 359.612,239.322 359.476,237.252 359.532 L 234.400 359.608 234.400 357.654 C 234.400 356.579,234.288 355.138,234.150 354.450 L 233.900 353.200 230.950 353.200 L 228.000 353.200 228.000 350.000 L 228.000 346.800 239.300 346.767 C 252.265 346.728,252.371 346.722,252.960 345.942 C 253.202 345.621,254.480 345.124,255.800 344.837 C 258.631 344.222,260.969 343.012,261.813 341.724 C 262.385 340.851,262.665 340.799,266.909 340.787 C 270.223 340.778,271.604 340.621,272.176 340.187 C 272.604 339.864,273.245 339.600,273.602 339.600 C 274.576 339.600,276.377 337.518,276.834 335.862 L 277.238 334.400 280.339 334.400 C 284.169 334.400,284.400 334.191,284.400 330.720 L 284.400 328.000 290.000 327.950 C 293.080 327.923,295.813 327.878,296.074 327.850 C 296.334 327.822,296.615 327.212,296.697 326.493 C 296.908 324.643,299.721 322.024,301.513 322.010 C 302.284 322.004,302.917 321.760,303.048 321.418 C 303.171 321.098,304.055 320.458,305.012 319.994 C 306.309 319.367,306.971 318.700,307.612 317.376 C 308.084 316.399,308.770 315.578,309.136 315.551 C 309.501 315.524,310.340 315.468,311.000 315.426 C 313.723 315.252,314.036 315.183,313.803 314.805 C 313.657 314.569,313.838 314.516,314.249 314.674 C 314.784 314.879,314.879 314.784,314.674 314.249 C 314.528 313.869,314.567 313.656,314.761 313.776 C 315.166 314.026,315.645 311.787,315.441 310.600 C 315.269 309.606,315.882 308.780,316.589 309.051 C 316.880 309.163,317.242 309.055,317.393 308.811 C 317.544 308.567,318.025 308.481,318.463 308.620 C 318.990 308.787,319.441 308.624,319.797 308.136 C 320.093 307.731,320.575 307.396,320.868 307.391 C 321.211 307.386,321.379 306.925,321.341 306.091 C 321.309 305.381,321.444 304.800,321.641 304.800 C 321.839 304.800,321.921 303.465,321.824 301.833 C 321.675 299.313,321.765 298.732,322.424 297.972 C 323.519 296.709,323.034 295.883,320.011 293.861 C 318.217 292.662,319.689 293.174,321.648 294.431 C 324.104 296.007,324.414 296.924,322.995 298.405 C 321.478 299.989,321.906 300.671,323.553 299.295 C 325.983 297.267,325.241 295.262,321.359 293.362 C 316.720 291.093,312.748 291.842,311.210 295.276 L 310.467 296.936 307.924 296.844 C 304.636 296.724,303.200 297.252,303.200 298.580 C 303.200 299.232,302.571 300.208,301.389 301.389 L 299.579 303.200 295.638 303.200 C 291.011 303.200,290.778 303.359,290.887 306.440 C 290.984 309.173,290.708 309.604,288.876 309.584 L 287.400 309.567 289.151 307.984 C 290.115 307.113,290.708 306.400,290.471 306.400 C 290.233 306.400,289.415 307.042,288.653 307.827 C 287.387 309.130,287.030 309.270,284.533 309.441 C 283.030 309.544,281.070 309.684,280.178 309.751 C 278.448 309.881,276.337 310.764,277.700 310.788 C 278.638 310.804,278.593 311.485,277.633 311.790 C 276.335 312.202,274.800 313.619,274.800 314.405 C 274.800 315.191,274.113 315.846,273.711 315.444 C 273.256 314.989,274.954 311.944,275.972 311.391 C 277.340 310.647,276.673 310.638,275.236 311.381 C 274.229 311.902,273.782 312.622,273.050 314.900 C 272.848 315.529,272.158 315.600,266.213 315.600 C 261.615 315.600,259.600 315.736,259.600 316.046 C 259.600 316.353,258.921 316.407,257.426 316.221 C 254.433 315.847,253.398 316.788,253.777 319.539 C 253.960 320.869,253.916 321.229,253.623 320.800 C 253.286 320.307,253.211 320.361,253.206 321.100 L 253.200 322.000 234.400 322.000 C 216.774 322.000,215.598 321.956,215.568 321.300 C 215.539 320.678,215.355 319.126,215.141 317.704 C 215.100 317.431,214.557 316.982,213.933 316.706 C 213.310 316.430,212.800 316.069,212.800 315.902 C 212.800 315.736,207.850 315.600,201.800 315.600 L 190.800 315.600 190.800 313.080 C 190.800 309.884,190.499 309.605,187.020 309.577 C 181.587 309.533,178.244 307.754,177.899 304.724 L 177.748 303.400 171.674 303.290 L 165.600 303.179 165.600 300.404 C 165.600 297.089,165.281 296.800,161.626 296.800 L 159.200 296.800 159.200 294.826 C 159.200 293.740,159.024 292.390,158.810 291.826 L 158.420 290.800 152.610 290.800 L 146.800 290.800 146.800 288.850 C 146.800 285.372,146.450 284.400,145.197 284.400 C 143.696 284.400,140.800 281.524,140.800 280.033 C 140.800 279.027,138.951 277.820,137.737 278.035 C 137.552 278.068,136.725 278.073,135.900 278.047 L 134.400 278.000 134.400 275.633 C 134.400 272.030,134.371 272.000,130.957 272.000 L 128.000 272.000 127.954 267.100 C 127.929 264.405,127.940 261.885,127.979 261.500 C 128.018 261.115,127.848 260.800,127.602 260.800 C 127.355 260.800,127.252 260.639,127.374 260.442 C 127.710 259.899,126.571 259.600,124.167 259.600 L 122.000 259.600 122.000 257.033 C 122.000 254.099,121.753 253.200,120.947 253.200 C 120.635 253.200,120.193 252.705,119.963 252.100 C 119.413 250.647,118.188 249.375,116.775 248.790 C 115.645 248.322,115.627 248.263,115.514 244.657 L 115.400 241.000 112.300 240.883 L 109.200 240.766 109.153 233.483 C 109.127 229.477,109.129 225.999,109.158 225.753 C 109.187 225.508,108.948 225.089,108.627 224.822 C 108.208 224.474,108.143 224.077,108.396 223.410 C 108.802 222.343,108.583 222.000,107.498 222.000 C 107.075 222.000,105.935 221.183,104.964 220.185 L 103.200 218.369 103.200 214.785 C 103.200 212.528,103.043 211.200,102.776 211.200 C 102.543 211.200,102.458 211.029,102.588 210.820 C 102.966 210.208,101.569 209.728,99.128 209.633 L 96.855 209.545 95.027 211.872 M117.481 249.984 C 118.659 250.703,120.288 253.045,119.887 253.446 C 119.692 253.641,115.600 249.824,115.600 249.446 C 115.600 249.018,116.160 249.179,117.481 249.984 M315.100 291.482 C 315.595 291.578,316.405 291.578,316.900 291.482 C 317.395 291.387,316.990 291.309,316.000 291.309 C 315.010 291.309,314.605 291.387,315.100 291.482 M307.051 316.701 C 306.389 317.981,305.407 318.904,304.000 319.571 C 303.051 320.020,303.041 320.013,303.800 319.427 C 305.398 318.193,306.800 316.655,306.800 316.133 C 306.800 315.840,306.985 315.600,307.210 315.600 C 307.452 315.600,307.387 316.052,307.051 316.701 M256.008 316.914 C 255.462 317.190,254.790 317.862,254.514 318.408 C 254.094 319.237,254.011 319.273,254.006 318.631 C 253.998 317.582,255.144 316.399,256.162 316.406 C 256.932 316.411,256.920 316.452,256.008 316.914 M276.400 335.969 C 276.400 336.715,274.358 338.736,273.196 339.141 C 272.538 339.371,272.000 339.424,272.000 339.260 C 272.000 339.095,272.649 338.726,273.442 338.439 C 274.268 338.140,275.165 337.424,275.542 336.761 C 276.244 335.527,276.400 335.383,276.400 335.969 M258.586 342.166 C 257.929 343.168,256.231 344.131,254.248 344.626 C 252.205 345.135,253.243 344.023,255.767 342.997 C 257.061 342.471,258.308 341.852,258.540 341.620 C 259.237 340.923,259.255 341.144,258.586 342.166 " stroke="none" fill="#4c8cfc" fill-rule="evenodd"></path><path id="path1" d="M302.912 195.191 C 290.158 195.404,288.776 195.591,288.806 197.096 C 288.842 198.892,290.192 199.059,303.518 198.919 C 317.424 198.773,317.789 198.741,318.393 197.613 C 318.778 196.894,316.379 194.551,315.607 194.891 C 315.493 194.942,309.781 195.077,302.912 195.191 M328.000 197.797 C 328.000 199.124,326.572 199.991,323.760 200.373 C 319.788 200.912,319.140 205.600,323.037 205.600 C 324.410 205.600,325.483 206.713,325.969 208.641 C 326.582 211.077,327.880 213.591,328.966 214.445 C 329.443 214.820,330.366 216.088,331.016 217.263 L 332.200 219.400 332.328 227.600 C 332.472 236.837,332.222 237.778,329.223 239.283 C 327.046 240.376,326.844 240.788,326.350 245.126 C 325.829 249.715,325.084 251.200,323.306 251.200 C 321.839 251.200,318.934 253.009,318.319 254.306 C 315.808 259.600,290.000 259.173,290.000 253.837 C 290.000 252.285,284.040 251.160,282.735 252.465 L 281.869 253.331 282.975 254.213 C 283.710 254.799,284.897 255.180,286.518 255.349 C 289.224 255.632,289.585 255.948,289.594 258.038 C 289.603 260.217,290.515 260.778,294.765 261.217 C 298.872 261.642,301.109 262.568,302.466 264.403 L 303.350 265.600 312.675 265.600 C 321.625 265.600,322.000 265.569,322.000 264.827 C 322.000 264.402,322.361 263.939,322.802 263.799 C 324.202 263.355,325.932 261.620,326.202 260.389 C 326.381 259.574,326.705 259.200,327.232 259.200 C 327.921 259.200,328.000 258.892,328.000 256.200 L 328.000 253.200 331.200 253.200 L 334.400 253.200 334.400 251.768 C 334.400 249.841,337.201 246.924,339.238 246.730 L 340.600 246.600 340.713 242.127 L 340.826 237.654 342.213 236.267 C 343.950 234.530,343.948 233.988,342.200 232.454 C 340.831 231.251,340.800 231.158,340.800 228.185 C 340.800 225.230,340.839 225.110,342.200 223.826 C 342.970 223.100,343.600 222.247,343.600 221.931 C 343.600 221.615,342.970 220.746,342.200 220.000 L 340.800 218.643 340.800 214.122 C 340.800 211.227,340.649 209.600,340.380 209.600 C 340.148 209.600,339.681 208.925,339.341 208.100 C 338.490 206.033,337.306 204.856,335.791 204.572 C 334.510 204.332,334.510 204.332,334.282 201.306 C 334.007 197.677,333.734 197.371,330.500 197.056 C 328.044 196.817,328.000 196.830,328.000 197.797 M281.070 202.120 C 278.049 203.094,277.847 203.325,276.831 206.990 L 276.124 209.542 277.029 210.671 L 277.934 211.800 279.167 210.625 C 279.864 209.961,280.400 209.040,280.400 208.507 C 280.400 207.263,282.102 205.600,283.376 205.600 C 283.932 205.600,284.944 205.102,285.625 204.494 L 286.863 203.388 286.002 202.294 C 284.977 200.991,284.614 200.978,281.070 202.120 M271.189 219.700 C 269.984 222.356,270.027 234.383,271.249 236.388 L 272.095 237.776 273.046 236.588 C 274.406 234.888,274.515 222.178,273.192 219.584 C 272.187 217.615,272.134 217.618,271.189 219.700 M277.227 245.162 C 276.189 246.620,276.189 247.224,277.228 248.545 C 278.983 250.776,280.773 247.945,279.208 245.412 C 278.157 243.713,278.251 243.725,277.227 245.162 " stroke="none" fill="#f1f4f6" fill-rule="evenodd"></path><path id="path2" d="M173.046 16.225 C 172.911 16.575,172.601 16.724,172.341 16.564 C 172.055 16.387,171.984 16.451,172.157 16.730 C 172.454 17.211,174.000 16.518,174.000 15.904 C 174.000 15.350,173.290 15.589,173.046 16.225 M207.708 17.784 C 206.997 18.098,206.053 18.950,205.609 19.677 C 203.906 22.471,205.138 22.849,207.638 20.300 L 209.305 18.600 207.975 20.200 L 206.645 21.800 210.173 21.916 C 214.287 22.052,214.349 22.020,213.487 20.215 C 212.352 17.833,209.915 16.809,207.708 17.784 M172.200 26.800 C 171.788 27.466,172.384 28.001,173.524 27.988 C 174.451 27.977,174.503 27.919,173.897 27.566 C 173.510 27.341,173.017 27.266,172.801 27.399 C 172.578 27.537,172.512 27.374,172.647 27.021 C 172.912 26.332,172.588 26.172,172.200 26.800 M186.001 28.500 C 186.006 30.047,188.942 32.800,190.587 32.800 C 190.704 32.800,190.800 31.720,190.800 30.400 L 190.800 28.000 188.400 28.000 C 186.746 28.000,186.000 28.155,186.001 28.500 M300.085 29.403 C 298.764 29.977,297.600 31.917,297.600 33.544 C 297.600 34.415,296.862 34.800,295.193 34.800 C 292.153 34.800,290.986 36.191,291.415 39.306 L 291.695 41.341 292.201 39.867 C 292.891 37.862,293.506 37.200,295.509 36.312 C 296.450 35.895,297.126 35.403,297.012 35.219 C 296.898 35.035,297.039 34.794,297.327 34.684 C 297.614 34.573,298.061 33.774,298.321 32.907 C 298.884 31.028,299.712 30.207,301.827 29.433 C 303.106 28.964,303.213 28.854,302.400 28.844 C 301.850 28.837,300.808 29.088,300.085 29.403 M300.919 30.384 C 299.261 31.395,297.646 34.400,298.760 34.400 C 298.959 34.400,299.486 33.781,299.932 33.025 C 300.379 32.268,301.296 31.364,301.972 31.015 C 303.217 30.371,303.614 29.599,302.700 29.601 C 302.425 29.602,301.624 29.954,300.919 30.384 M197.403 36.100 C 197.802 38.574,198.547 39.525,200.297 39.791 C 201.124 39.916,202.281 40.174,202.870 40.363 C 204.604 40.922,203.814 39.775,201.788 38.794 C 200.491 38.167,199.829 37.500,199.188 36.176 C 198.037 33.797,197.026 33.754,197.403 36.100 M252.700 34.799 C 252.975 35.108,253.200 35.790,253.200 36.316 C 253.200 37.481,256.468 40.800,257.615 40.800 C 259.888 40.800,257.750 36.304,255.119 35.552 C 254.174 35.281,253.130 34.875,252.800 34.649 C 252.305 34.311,252.288 34.337,252.700 34.799 M204.418 41.320 C 204.370 43.258,205.961 44.915,208.556 45.631 C 209.949 46.015,209.519 45.586,207.257 44.334 C 206.595 43.968,205.690 42.978,205.245 42.134 C 204.747 41.190,204.429 40.877,204.418 41.320 M205.600 41.014 C 205.600 41.559,207.020 43.302,208.076 44.054 C 209.952 45.390,209.903 44.539,207.992 42.592 C 206.393 40.963,205.600 40.440,205.600 41.014 M209.733 47.018 C 209.733 47.659,210.101 47.691,211.600 47.179 L 212.600 46.838 211.600 46.907 C 211.050 46.944,210.405 46.854,210.167 46.705 C 209.928 46.557,209.733 46.697,209.733 47.018 M271.753 47.522 C 272.168 47.994,272.642 48.297,272.808 48.195 C 272.974 48.093,273.332 48.277,273.604 48.604 C 273.876 48.932,274.301 49.197,274.549 49.194 C 274.797 49.191,274.730 49.013,274.400 48.800 C 274.070 48.587,273.994 48.409,274.230 48.406 C 274.840 48.397,276.463 50.204,276.137 50.530 C 275.988 50.678,276.096 50.800,276.376 50.800 C 276.656 50.800,276.796 51.033,276.687 51.317 C 276.468 51.889,277.460 53.473,277.816 53.117 C 278.185 52.749,277.539 48.870,276.982 48.107 C 276.604 47.590,275.884 47.392,274.306 47.369 C 273.119 47.352,271.889 47.186,271.574 47.000 C 271.258 46.815,271.339 47.049,271.753 47.522 M184.880 53.680 C 184.298 54.262,184.248 55.200,184.800 55.200 C 185.180 55.200,185.369 54.609,185.231 53.851 C 185.196 53.659,185.454 53.612,185.804 53.746 C 186.173 53.888,186.339 53.824,186.197 53.595 C 185.873 53.070,185.463 53.097,184.880 53.680 M277.973 55.025 C 278.295 56.878,281.397 59.564,283.157 59.514 C 283.867 59.493,284.293 59.370,284.103 59.238 C 283.914 59.107,283.455 58.190,283.084 57.199 C 282.338 55.206,281.577 54.579,279.286 54.064 L 277.745 53.718 277.973 55.025 M182.441 57.814 C 180.911 59.557,180.885 59.451,182.800 59.269 C 184.323 59.123,184.400 59.050,184.400 57.758 C 184.400 56.036,183.992 56.048,182.441 57.814 M175.505 59.483 C 176.002 59.579,176.722 59.575,177.105 59.475 C 177.487 59.375,177.080 59.296,176.200 59.301 C 175.320 59.305,175.007 59.387,175.505 59.483 M169.010 60.016 C 169.176 60.284,168.911 60.343,168.266 60.181 C 166.713 59.791,165.820 61.401,166.328 63.674 C 166.547 64.650,166.733 65.000,166.757 64.480 C 166.861 62.244,168.730 60.409,170.919 60.394 C 171.634 60.389,171.687 60.315,171.200 60.000 C 170.388 59.475,168.683 59.488,169.010 60.016 M289.200 59.951 C 289.200 60.463,290.376 61.357,290.667 61.067 C 290.957 60.776,290.063 59.600,289.551 59.600 C 289.358 59.600,289.200 59.758,289.200 59.951 M167.462 61.131 C 167.098 61.534,166.786 62.119,166.768 62.431 C 166.748 62.807,166.671 62.838,166.542 62.522 C 166.291 61.904,167.095 60.400,167.676 60.400 C 167.929 60.400,167.835 60.719,167.462 61.131 M158.400 66.000 C 158.400 66.220,158.670 66.400,159.000 66.400 C 159.330 66.400,159.600 66.220,159.600 66.000 C 159.600 65.780,159.330 65.600,159.000 65.600 C 158.670 65.600,158.400 65.780,158.400 66.000 M336.400 67.541 C 334.737 69.258,334.012 70.800,334.867 70.800 C 335.818 70.800,338.001 69.565,338.521 68.733 C 340.519 65.538,339.107 64.744,336.400 67.541 M154.300 66.421 C 153.915 66.651,153.600 67.141,153.600 67.509 C 153.600 68.040,153.728 67.995,154.223 67.289 C 154.565 66.800,155.097 66.400,155.404 66.400 C 155.769 66.400,155.621 66.743,154.982 67.382 C 154.442 67.922,154.007 68.777,154.016 69.282 C 154.029 70.065,154.115 70.006,154.602 68.886 C 154.953 68.078,155.678 67.353,156.486 67.002 C 157.209 66.688,157.530 66.422,157.200 66.410 C 156.870 66.399,156.240 66.302,155.800 66.196 C 155.360 66.090,154.685 66.191,154.300 66.421 M338.435 67.535 C 337.929 68.480,336.085 70.001,335.446 69.999 C 335.201 69.998,335.589 69.638,336.308 69.199 C 337.028 68.761,337.822 67.951,338.073 67.399 C 338.324 66.848,338.605 66.472,338.697 66.564 C 338.789 66.656,338.671 67.093,338.435 67.535 M153.240 70.276 C 153.218 70.978,153.380 71.664,153.600 71.800 C 154.060 72.084,154.060 71.436,153.600 70.000 C 153.294 69.045,153.278 69.057,153.240 70.276 M143.400 72.400 C 144.596 72.914,145.595 72.914,144.800 72.400 C 144.470 72.187,143.840 72.022,143.400 72.034 L 142.600 72.056 143.400 72.400 M141.474 72.700 C 141.378 72.865,141.445 73.360,141.622 73.800 C 141.799 74.240,141.956 74.403,141.972 74.161 C 141.987 73.920,142.405 73.511,142.900 73.253 C 143.752 72.808,143.740 72.795,142.666 73.008 C 141.935 73.152,141.624 73.084,141.790 72.816 C 141.932 72.587,141.957 72.400,141.847 72.400 C 141.737 72.400,141.569 72.535,141.474 72.700 M140.868 74.200 C 140.862 74.640,141.011 75.360,141.200 75.800 C 141.638 76.819,141.638 75.768,141.200 74.400 C 140.943 73.596,140.877 73.557,140.868 74.200 M198.300 78.289 C 199.918 78.490,199.931 78.850,198.369 80.164 L 197.139 81.200 206.139 81.200 L 215.138 81.200 213.869 79.901 L 212.600 78.602 214.200 78.358 C 215.080 78.223,211.570 78.117,206.400 78.121 C 201.230 78.125,197.585 78.201,198.300 78.289 M217.100 78.289 C 218.718 78.490,218.731 78.850,217.169 80.164 L 215.939 81.200 221.979 81.200 L 228.020 81.200 228.435 82.292 C 228.986 83.742,229.464 83.993,231.600 83.958 C 233.368 83.928,233.378 83.921,232.125 83.559 C 230.503 83.090,229.340 81.613,228.998 79.588 L 228.730 78.000 222.265 78.064 C 218.709 78.099,216.385 78.201,217.100 78.289 M183.884 82.799 C 183.769 83.238,183.253 83.767,182.738 83.974 C 182.092 84.232,182.009 84.357,182.471 84.375 C 183.283 84.405,184.400 83.361,184.400 82.571 C 184.400 81.748,184.128 81.869,183.884 82.799 M165.759 84.963 C 165.653 85.238,165.510 86.210,165.441 87.121 C 165.302 88.961,164.556 90.145,163.736 89.831 C 163.441 89.718,163.200 89.819,163.200 90.055 C 163.200 90.292,162.959 90.393,162.664 90.280 C 162.369 90.167,161.874 90.235,161.564 90.431 C 160.589 91.048,163.284 90.856,164.500 90.221 C 165.529 89.685,165.600 89.701,165.600 90.466 C 165.600 91.270,165.477 91.280,159.060 90.997 C 152.664 90.715,150.555 90.880,151.018 91.630 C 151.145 91.834,150.787 92.177,150.224 92.391 C 149.661 92.605,149.200 92.885,149.200 93.014 C 149.200 93.142,149.425 93.112,149.700 92.947 C 150.040 92.743,150.024 92.863,149.651 93.323 C 149.349 93.695,148.854 94.000,148.551 94.000 C 148.248 94.000,148.000 94.191,148.000 94.424 C 148.000 94.657,147.820 94.736,147.599 94.600 C 147.379 94.463,147.029 94.797,146.822 95.342 C 146.380 96.505,145.783 96.730,142.716 96.885 C 140.740 96.984,140.363 97.135,139.921 98.000 C 137.914 101.935,135.180 103.203,128.738 103.187 C 122.874 103.173,122.157 102.941,121.934 100.981 L 121.800 99.800 120.300 101.260 C 118.444 103.066,118.441 103.367,120.259 105.081 C 121.394 106.152,121.801 106.340,122.093 105.929 C 122.351 105.566,122.397 105.714,122.240 106.400 C 122.114 106.950,122.008 107.786,122.005 108.258 C 122.000 109.040,121.715 109.142,118.800 109.400 L 115.600 109.683 115.600 110.995 C 115.600 112.679,112.859 115.593,111.253 115.614 C 110.019 115.631,105.877 116.581,105.192 117.005 C 104.540 117.408,103.600 119.759,103.600 120.987 C 103.600 122.073,103.728 122.043,98.600 122.163 L 97.000 122.200 96.882 125.100 L 96.765 128.000 94.282 128.006 C 91.296 128.013,90.705 128.328,90.827 129.844 C 91.263 135.239,89.744 136.274,86.391 132.867 L 84.418 130.863 84.309 123.332 L 84.200 115.800 81.100 115.873 L 78.000 115.946 78.000 112.818 L 78.000 109.689 76.578 109.422 C 74.922 109.112,72.156 106.562,71.759 104.981 C 71.365 103.410,70.217 103.200,62.003 103.200 C 53.139 103.200,53.200 103.175,53.200 106.783 L 53.200 109.108 47.100 109.454 L 41.000 109.800 41.000 115.900 L 41.000 122.000 39.800 122.070 C 39.140 122.108,37.712 122.153,36.627 122.170 L 34.655 122.200 34.602 131.000 C 34.540 141.179,34.407 140.800,38.049 140.800 L 40.800 140.800 40.833 142.500 C 40.852 143.435,40.897 145.940,40.933 148.066 C 40.970 150.193,41.121 152.053,41.268 152.201 C 41.782 152.715,44.617 153.181,47.291 153.190 C 49.729 153.199,50.044 153.296,50.650 154.220 C 51.894 156.118,53.054 156.400,59.627 156.400 L 65.694 156.400 67.294 154.800 C 70.514 151.580,72.525 152.583,72.107 157.199 L 71.889 159.600 68.987 159.600 C 65.563 159.600,65.600 159.551,65.600 163.984 C 65.600 167.049,65.580 167.111,64.440 167.584 C 63.013 168.174,61.789 169.442,61.237 170.900 C 61.007 171.505,60.565 172.000,60.254 172.000 C 59.921 172.000,59.577 172.596,59.416 173.453 C 59.083 175.230,56.774 177.609,54.800 178.208 L 53.400 178.633 53.400 182.817 L 53.400 187.000 51.518 188.872 C 50.374 190.009,49.200 190.794,48.527 190.872 C 47.080 191.039,46.720 192.868,46.882 199.216 L 47.000 203.832 45.930 203.675 C 42.056 203.106,41.210 204.598,40.937 212.481 L 40.733 218.362 38.929 220.166 C 37.937 221.158,36.801 222.073,36.405 222.198 C 34.672 222.749,34.595 223.649,34.457 245.055 L 34.400 253.911 32.940 254.185 C 29.177 254.891,28.394 257.816,28.410 271.116 C 28.424 283.707,28.468 283.800,34.450 283.800 C 39.439 283.800,39.689 283.580,40.327 278.642 C 40.812 274.885,42.807 272.000,44.920 272.000 C 46.655 272.000,46.799 271.424,46.814 264.420 L 46.829 257.800 48.514 257.000 C 49.670 256.452,50.431 255.728,50.933 254.700 C 51.401 253.743,51.944 253.200,52.433 253.200 C 53.128 253.200,53.200 252.885,53.200 249.845 L 53.200 246.491 55.029 246.217 C 57.250 245.884,58.275 244.939,58.603 242.922 C 59.042 240.229,59.403 239.734,61.137 239.457 C 62.992 239.160,64.244 237.836,64.634 235.759 C 65.160 232.953,65.799 234.307,65.832 238.300 C 65.866 242.433,66.445 245.271,67.423 246.098 C 67.749 246.374,68.904 247.446,69.989 248.480 L 71.962 250.359 72.023 257.680 C 72.114 268.488,72.790 270.606,76.301 271.077 L 78.000 271.305 78.000 274.020 C 78.000 278.003,77.997 278.000,81.396 278.000 C 84.898 278.000,84.779 277.740,84.491 284.733 C 84.257 290.407,84.516 290.800,88.489 290.800 L 90.800 290.800 90.870 292.300 C 90.909 293.125,90.896 294.475,90.843 295.300 C 90.746 296.800,90.747 296.800,92.346 296.800 C 93.588 296.800,94.002 296.977,94.197 297.590 C 94.335 298.024,94.966 298.749,95.600 299.200 C 96.455 299.809,96.785 300.406,96.876 301.510 C 96.991 302.893,97.101 303.010,98.400 303.132 C 99.390 303.226,100.179 303.678,101.095 304.677 C 101.887 305.541,102.621 306.001,102.985 305.861 C 103.478 305.672,103.538 305.940,103.336 307.416 L 103.091 309.200 104.678 309.200 C 105.960 309.200,106.367 309.392,106.799 310.197 C 107.092 310.746,107.736 311.459,108.228 311.782 C 108.797 312.155,109.224 312.959,109.397 313.984 L 109.670 315.600 112.635 315.600 L 115.600 315.600 115.600 318.171 C 115.600 321.905,115.758 322.000,121.980 322.000 C 128.328 322.000,128.002 322.340,128.054 315.690 C 128.103 309.384,128.220 309.600,124.776 309.600 C 123.249 309.600,122.021 309.465,122.047 309.300 C 122.073 309.135,122.073 306.255,122.047 302.900 L 122.000 296.800 119.371 296.800 C 115.976 296.800,115.600 296.424,115.600 293.029 L 115.600 290.400 114.100 290.406 C 113.168 290.410,112.795 290.536,113.115 290.739 C 113.414 290.929,112.678 291.052,111.364 291.033 L 109.097 291.000 109.299 284.908 C 109.528 278.014,109.613 278.224,106.446 277.867 C 103.506 277.536,103.288 276.943,103.229 269.118 L 103.200 265.236 101.866 264.986 C 97.679 264.200,96.817 260.812,96.807 245.087 C 96.802 236.871,96.683 234.339,96.300 234.221 C 96.025 234.136,95.313 233.960,94.717 233.830 C 94.121 233.700,93.133 233.129,92.521 232.562 L 91.408 231.530 91.275 223.065 C 91.096 211.655,91.765 209.600,95.659 209.600 L 96.800 209.600 96.800 199.800 L 96.800 190.000 97.940 190.000 C 99.593 190.000,101.494 189.249,101.805 188.472 C 102.825 185.929,103.200 183.051,103.200 177.780 L 103.200 172.000 105.567 172.000 C 109.247 172.000,109.198 172.056,109.214 167.857 L 109.229 164.200 110.914 163.400 C 112.136 162.820,112.820 162.141,113.400 160.932 C 113.840 160.015,114.515 159.177,114.900 159.070 C 115.492 158.905,115.600 158.382,115.600 155.689 L 115.600 152.504 117.380 152.006 C 119.531 151.403,120.185 150.728,120.778 148.500 C 121.027 147.565,121.404 146.800,121.615 146.800 C 121.827 146.800,122.000 146.170,122.000 145.400 C 122.000 143.539,124.511 140.916,126.473 140.727 L 127.800 140.600 127.913 136.097 L 128.026 131.595 129.824 129.797 L 131.621 128.000 135.731 128.000 C 140.632 128.000,140.800 127.885,140.800 124.538 L 140.800 122.035 143.700 121.918 L 146.600 121.800 146.717 118.700 L 146.834 115.600 150.017 115.600 C 151.768 115.600,153.200 115.457,153.200 115.283 C 153.200 115.109,154.013 114.749,155.006 114.483 C 157.013 113.946,158.396 112.247,158.399 110.316 L 158.400 109.231 161.900 109.116 L 165.400 109.000 165.524 107.723 C 165.606 106.869,166.179 105.915,167.258 104.836 L 168.869 103.226 173.334 103.113 L 177.800 103.000 177.927 101.684 C 178.015 100.760,178.580 99.841,179.824 98.597 L 181.595 96.826 186.097 96.713 L 190.600 96.600 190.712 91.032 C 190.779 87.671,190.664 85.304,190.421 85.061 C 189.782 84.422,166.003 84.328,165.759 84.963 M253.200 89.586 C 253.200 89.798,253.548 90.158,253.974 90.386 C 255.146 91.013,255.286 90.886,254.400 90.000 C 253.515 89.115,253.200 89.006,253.200 89.586 M265.600 91.953 C 265.600 92.613,265.780 93.264,266.000 93.400 C 266.233 93.544,266.400 93.145,266.400 92.447 C 266.400 91.787,266.220 91.136,266.000 91.000 C 265.767 90.856,265.600 91.255,265.600 91.953 M266.236 94.651 C 265.904 95.514,265.940 95.684,266.395 95.403 C 266.631 95.257,266.684 95.438,266.526 95.849 C 266.325 96.374,266.418 96.479,266.918 96.287 C 267.279 96.148,267.681 96.207,267.811 96.417 C 267.941 96.628,268.982 96.771,270.124 96.736 C 271.665 96.688,271.839 96.633,270.800 96.522 C 269.133 96.343,267.148 95.610,267.363 95.254 C 267.447 95.114,267.281 94.783,266.994 94.518 C 266.583 94.138,266.422 94.167,266.236 94.651 M212.002 97.097 C 209.903 97.350,209.600 97.798,209.600 100.649 L 209.600 103.200 207.827 103.200 C 206.413 103.200,206.003 103.040,205.803 102.410 C 205.019 99.938,202.535 99.684,200.796 101.897 L 199.929 103.000 192.265 103.200 L 184.600 103.400 184.482 106.300 L 184.365 109.200 180.641 109.200 C 178.593 109.200,175.811 109.316,174.459 109.457 L 172.000 109.714 172.000 112.657 L 172.000 115.600 169.024 115.600 C 167.387 115.600,165.936 115.780,165.800 116.000 C 165.664 116.220,165.068 116.401,164.476 116.401 C 162.089 116.405,160.014 118.768,160.002 121.500 C 160.001 121.861,159.052 122.000,156.600 122.000 L 153.200 122.000 153.200 123.386 C 153.200 125.095,150.437 127.974,148.780 127.990 C 147.182 128.006,146.800 128.717,146.800 131.680 L 146.800 134.400 143.800 134.400 L 140.800 134.400 140.800 137.600 L 140.800 140.800 137.843 140.800 C 134.355 140.800,134.400 140.743,134.400 145.184 C 134.400 148.249,134.380 148.311,133.240 148.784 C 131.813 149.374,130.589 150.642,130.037 152.100 C 129.807 152.705,129.366 153.200,129.057 153.200 C 128.206 153.200,128.011 154.502,128.005 160.242 L 128.000 165.484 125.329 165.734 C 123.859 165.871,122.512 166.212,122.335 166.492 C 121.585 167.673,121.943 234.060,122.700 234.259 C 123.085 234.361,123.706 235.163,124.079 236.043 C 124.595 237.256,125.148 237.805,126.375 238.321 L 127.992 239.000 127.996 242.267 C 128.000 245.890,128.213 246.800,129.053 246.800 C 129.365 246.800,129.807 247.295,130.037 247.900 C 130.589 249.358,131.813 250.626,133.240 251.216 L 134.400 251.697 134.400 255.449 L 134.400 259.200 135.747 259.200 C 136.817 259.200,137.477 259.582,138.947 261.053 L 140.800 262.905 140.800 265.793 C 140.800 270.564,141.458 271.570,144.600 271.601 C 146.411 271.618,146.678 271.974,147.000 274.800 C 147.365 278.006,147.334 277.986,152.086 277.994 L 155.971 278.000 157.564 279.700 C 158.588 280.794,159.248 281.935,159.413 282.900 L 159.670 284.400 162.590 284.400 L 165.510 284.400 165.667 287.179 C 165.862 290.628,165.784 290.558,169.700 290.800 C 172.878 290.996,172.944 291.022,173.319 292.200 C 173.868 293.922,175.128 295.150,176.636 295.433 C 177.356 295.568,178.041 295.931,178.160 296.239 C 178.332 296.687,179.628 296.800,184.587 296.800 L 190.800 296.800 190.800 299.124 C 190.800 303.395,187.584 302.984,222.015 303.110 C 256.092 303.234,253.200 303.564,253.200 299.551 L 253.200 296.800 261.977 296.800 C 272.132 296.800,272.000 296.851,272.000 292.911 L 272.000 290.800 275.000 290.800 L 278.000 290.800 278.000 289.364 C 278.000 288.187,278.326 287.611,279.815 286.164 L 281.631 284.400 285.415 284.400 C 290.223 284.400,290.800 283.971,290.800 280.400 L 290.800 278.000 293.800 278.000 L 296.800 278.000 296.800 275.017 L 296.800 272.034 299.900 271.917 L 303.000 271.800 303.117 268.700 C 303.181 266.995,303.181 265.596,303.117 265.590 C 303.053 265.585,299.909 265.417,296.132 265.217 C 287.461 264.758,285.600 263.837,285.600 260.003 C 285.600 259.041,284.220 258.400,282.148 258.400 C 280.201 258.400,279.367 257.881,276.495 254.878 C 273.943 252.211,273.625 251.546,272.780 247.100 C 272.505 245.649,272.144 244.800,271.802 244.800 C 267.958 244.800,266.178 238.331,266.518 225.600 C 266.816 214.460,267.471 212.225,270.748 211.157 C 272.646 210.539,272.696 210.434,273.005 206.424 C 273.536 199.533,274.015 198.851,279.047 197.819 C 282.899 197.029,284.102 196.277,285.021 194.086 C 286.035 191.665,286.551 191.598,304.087 191.618 C 316.011 191.631,320.155 191.762,321.271 192.160 C 322.080 192.449,323.522 192.686,324.476 192.686 C 325.429 192.686,326.613 192.814,327.105 192.970 L 328.000 193.254 328.000 186.411 C 328.000 176.584,326.989 173.698,323.289 172.958 L 322.019 172.704 321.910 166.252 L 321.800 159.800 319.600 159.696 C 315.280 159.493,315.600 159.996,315.600 153.406 C 315.600 146.701,315.660 146.800,311.626 146.800 L 309.200 146.800 309.200 143.800 L 309.200 140.800 306.200 140.800 L 303.200 140.800 303.160 135.700 C 303.108 129.001,302.995 128.628,300.984 128.497 C 296.942 128.236,296.929 128.227,296.635 125.627 C 296.287 122.553,295.890 122.279,291.477 122.068 L 287.825 121.894 286.139 120.159 C 284.987 118.973,284.412 118.008,284.326 117.112 L 284.200 115.800 281.117 115.683 L 278.034 115.567 277.917 112.683 L 277.800 109.800 273.370 109.523 L 268.940 109.246 267.270 107.576 C 266.259 106.565,265.600 105.536,265.600 104.967 C 265.600 103.463,264.460 103.200,257.926 103.199 L 251.800 103.198 251.000 101.711 C 248.830 97.679,244.531 97.640,242.853 101.636 C 242.035 103.586,240.000 103.979,240.000 102.187 C 240.000 97.692,236.963 96.764,222.576 96.864 C 217.529 96.899,212.771 97.004,212.002 97.097 M275.200 97.122 C 275.200 97.298,275.810 98.034,276.555 98.756 L 277.909 100.069 278.065 98.435 L 278.221 96.800 276.711 96.800 C 275.880 96.800,275.200 96.945,275.200 97.122 M324.400 97.600 C 323.887 97.931,323.902 97.989,324.500 97.994 C 324.885 97.997,325.200 98.191,325.200 98.424 C 325.200 98.657,325.380 98.736,325.600 98.600 C 325.820 98.464,326.000 98.644,326.000 99.000 C 326.000 99.356,326.172 99.541,326.381 99.412 C 326.717 99.204,327.064 100.134,327.723 103.000 C 327.824 103.440,327.928 102.956,327.954 101.924 C 327.979 100.892,327.828 99.941,327.617 99.811 C 327.407 99.681,327.346 99.284,327.482 98.929 C 327.951 97.708,325.721 96.746,324.400 97.600 M278.046 101.451 C 278.021 101.919,278.315 102.549,278.700 102.851 C 279.309 103.328,279.340 103.322,278.943 102.800 C 278.692 102.470,278.398 101.840,278.289 101.400 C 278.103 100.640,278.090 100.643,278.046 101.451 M284.992 104.504 C 284.529 106.969,286.377 109.355,288.206 108.653 C 288.753 108.443,288.658 108.229,287.639 107.371 C 286.939 106.783,286.234 105.669,285.992 104.771 C 285.478 102.860,285.308 102.815,284.992 104.504 M289.200 108.800 C 289.200 109.020,289.560 109.200,290.000 109.200 C 290.440 109.200,290.800 109.020,290.800 108.800 C 290.800 108.580,290.440 108.400,290.000 108.400 C 289.560 108.400,289.200 108.580,289.200 108.800 M328.400 109.949 C 328.400 110.141,329.085 110.407,329.923 110.541 C 331.804 110.842,333.156 112.219,333.470 114.152 C 333.855 116.528,334.243 116.140,334.002 113.619 C 333.737 110.853,333.061 109.848,331.696 110.190 C 331.080 110.345,330.826 110.282,330.990 110.016 C 331.150 109.758,330.707 109.600,329.824 109.600 C 329.041 109.600,328.400 109.757,328.400 109.949 M298.400 115.820 C 298.400 117.055,300.430 119.327,302.101 119.962 L 303.200 120.380 303.200 117.990 L 303.200 115.600 300.800 115.600 C 299.480 115.600,298.400 115.699,298.400 115.820 M305.011 122.879 C 305.370 124.066,307.106 125.917,308.170 126.249 C 308.627 126.391,309.111 126.681,309.247 126.892 C 309.383 127.103,309.473 126.134,309.447 124.738 L 309.400 122.200 307.066 122.079 C 304.795 121.961,304.740 121.983,305.011 122.879 M313.201 129.201 C 314.738 131.359,315.600 131.508,315.600 129.614 L 315.600 128.000 313.973 128.000 L 312.346 128.000 313.201 129.201 M317.200 134.620 C 317.200 135.855,319.230 138.127,320.901 138.762 L 322.000 139.180 322.000 136.790 L 322.000 134.400 319.600 134.400 C 318.280 134.400,317.200 134.499,317.200 134.620 M344.453 135.000 C 344.812 135.440,345.233 136.250,345.390 136.800 L 345.674 137.800 345.013 136.898 C 344.428 136.100,342.441 134.800,341.806 134.800 C 341.677 134.800,342.216 135.365,343.003 136.056 C 343.931 136.871,344.597 137.924,344.899 139.056 C 345.156 140.015,345.584 140.800,345.850 140.800 C 346.116 140.800,346.422 141.025,346.530 141.300 C 346.818 142.031,346.379 138.843,345.961 137.164 C 345.764 136.373,345.198 135.383,344.702 134.964 C 343.807 134.206,343.805 134.206,344.453 135.000 M322.500 146.790 C 322.885 147.037,323.200 147.510,323.200 147.840 C 323.200 149.094,324.502 150.883,325.814 151.432 C 327.905 152.305,328.000 152.216,328.000 149.400 L 328.000 146.800 325.633 146.800 C 324.331 146.800,322.936 146.696,322.533 146.570 C 321.848 146.355,321.846 146.369,322.500 146.790 M347.036 160.300 C 347.189 163.325,347.487 165.866,347.696 165.946 C 353.020 167.989,354.410 185.810,349.481 188.816 C 346.308 190.751,342.729 188.830,341.998 184.800 C 341.750 183.431,341.737 183.448,341.428 185.546 C 340.816 189.706,346.595 192.057,351.282 189.555 C 352.738 188.778,353.513 173.467,352.353 168.400 C 352.126 167.410,351.813 164.710,351.656 162.400 C 351.344 157.808,350.771 156.419,348.760 155.380 C 346.752 154.341,346.735 154.389,347.036 160.300 M331.549 159.904 C 331.934 160.625,333.006 161.654,333.900 162.163 C 334.265 162.370,334.400 162.008,334.400 160.824 L 334.400 159.200 332.786 159.200 C 331.369 159.200,331.218 159.286,331.549 159.904 M334.400 176.400 C 334.400 176.620,334.580 176.800,334.800 176.800 C 335.020 176.800,335.155 177.025,335.100 177.300 C 335.037 177.615,335.518 177.823,336.400 177.862 C 337.183 177.896,337.397 177.839,336.885 177.732 C 336.381 177.627,335.753 177.194,335.489 176.770 C 334.972 175.943,334.400 175.748,334.400 176.400 M340.944 181.600 C 340.944 183.690,341.012 184.545,341.094 183.500 C 341.176 182.455,341.176 180.745,341.094 179.700 C 341.012 178.655,340.944 179.510,340.944 181.600 M303.026 202.791 L 290.652 203.000 290.159 204.932 C 289.551 207.317,288.616 208.400,287.164 208.400 C 284.827 208.400,284.098 209.000,283.617 211.320 C 283.105 213.783,282.057 215.129,280.390 215.462 C 277.906 215.959,277.813 216.339,277.668 226.609 C 277.523 236.891,277.373 236.193,280.121 238.088 C 281.612 239.116,283.192 242.258,283.556 244.919 C 283.949 247.795,284.221 247.984,288.000 248.003 C 292.688 248.026,295.600 249.840,295.600 252.737 C 295.600 253.895,296.263 254.001,303.533 253.994 C 310.902 253.987,310.676 254.047,311.800 251.800 C 312.817 249.767,315.067 248.617,319.400 247.917 L 322.600 247.400 322.846 243.350 C 323.156 238.261,324.133 236.155,326.371 235.753 C 328.798 235.316,328.801 235.309,328.794 228.251 C 328.787 221.120,328.786 221.114,326.800 220.561 C 324.782 219.998,323.673 217.784,323.179 213.327 C 322.678 208.812,322.714 208.888,320.921 208.597 C 318.244 208.161,317.674 207.753,317.181 205.918 C 316.518 203.448,316.061 202.387,315.709 202.491 C 315.539 202.542,309.832 202.677,303.026 202.791 M102.300 210.333 C 103.120 211.192,103.317 211.169,102.967 210.257 C 102.828 209.896,102.464 209.600,102.157 209.600 C 101.733 209.600,101.767 209.775,102.300 210.333 M108.055 222.358 C 107.709 222.577,107.668 222.758,107.943 222.852 C 108.182 222.933,108.437 223.400,108.511 223.890 C 108.728 225.323,109.234 225.479,109.127 224.079 C 109.074 223.376,108.877 222.800,108.691 222.800 C 108.505 222.800,108.464 222.620,108.600 222.400 C 108.900 221.914,108.771 221.904,108.055 222.358 M116.600 248.629 C 118.462 249.670,119.259 250.482,119.912 252.000 C 120.243 252.770,120.588 253.192,120.678 252.937 C 121.237 251.356,118.938 248.689,116.600 248.206 L 115.400 247.958 116.600 248.629 M115.600 249.436 C 115.600 249.831,119.203 253.200,119.626 253.200 C 119.843 253.200,119.737 252.652,119.391 251.982 C 118.640 250.531,115.600 248.488,115.600 249.436 M109.701 286.200 C 109.705 287.080,109.787 287.393,109.883 286.895 C 109.979 286.398,109.975 285.678,109.875 285.295 C 109.775 284.913,109.696 285.320,109.701 286.200 M109.600 288.571 C 109.600 289.434,110.746 290.403,111.729 290.373 L 112.600 290.346 111.709 289.916 C 111.219 289.679,110.712 289.151,110.582 288.743 C 110.304 287.869,109.600 287.746,109.600 288.571 M310.877 292.287 C 310.055 293.108,309.946 293.502,310.163 294.858 C 310.331 295.907,310.278 296.372,310.009 296.206 C 309.784 296.067,309.600 296.143,309.600 296.376 C 309.600 297.395,310.657 296.655,311.263 295.212 C 312.673 291.856,316.753 291.109,321.359 293.362 C 325.304 295.293,325.985 297.254,323.450 299.383 C 321.736 300.821,321.384 302.628,322.900 302.200 C 326.129 301.290,327.201 299.928,327.199 296.740 C 327.195 292.480,325.448 291.506,317.623 291.397 C 311.992 291.319,311.822 291.341,310.877 292.287 M288.519 305.584 C 287.028 306.493,285.727 308.687,286.325 309.285 C 286.583 309.543,287.301 309.113,288.407 308.039 C 289.336 307.138,290.255 306.400,290.448 306.400 C 290.642 306.400,290.800 306.040,290.800 305.600 C 290.800 304.593,290.151 304.589,288.519 305.584 M321.474 305.100 C 321.378 305.265,321.445 305.760,321.622 306.200 C 321.903 306.898,321.947 306.860,321.972 305.900 C 322.000 304.815,321.812 304.514,321.474 305.100 M289.000 308.090 L 287.400 309.578 288.913 309.589 C 290.532 309.601,290.957 309.119,290.732 307.530 C 290.604 306.629,290.552 306.646,289.000 308.090 M320.950 307.717 C 320.733 308.106,319.771 308.569,318.780 308.763 L 317.000 309.112 318.624 309.156 C 320.410 309.204,321.813 308.440,321.525 307.575 C 321.381 307.143,321.254 307.174,320.950 307.717 M184.100 309.476 C 184.485 309.576,185.115 309.576,185.500 309.476 C 185.885 309.375,185.570 309.293,184.800 309.293 C 184.030 309.293,183.715 309.375,184.100 309.476 M282.900 309.476 C 283.285 309.576,283.915 309.576,284.300 309.476 C 284.685 309.375,284.370 309.293,283.600 309.293 C 282.830 309.293,282.515 309.375,282.900 309.476 M275.330 310.584 C 274.632 310.887,273.799 311.555,273.479 312.068 C 272.758 313.223,272.249 315.740,272.806 315.396 C 273.023 315.262,273.200 314.902,273.200 314.595 C 273.200 313.469,274.185 311.925,275.258 311.370 C 276.680 310.635,277.328 310.654,275.972 311.391 C 274.954 311.944,273.256 314.989,273.711 315.444 C 274.113 315.846,274.800 315.191,274.800 314.405 C 274.800 313.619,276.335 312.202,277.633 311.790 C 278.593 311.485,278.639 310.802,277.700 310.794 C 277.102 310.789,277.087 310.731,277.600 310.400 C 278.556 309.782,276.857 309.920,275.330 310.584 M315.200 313.157 C 315.200 313.647,315.022 313.937,314.805 313.803 C 314.569 313.657,314.516 313.838,314.674 314.249 C 314.879 314.784,314.784 314.879,314.249 314.674 C 313.838 314.516,313.657 314.569,313.803 314.805 C 313.937 315.022,313.647 315.200,313.157 315.200 C 312.667 315.200,312.374 315.307,312.505 315.438 C 313.183 316.117,315.158 315.103,315.412 313.945 C 315.557 313.284,315.569 312.636,315.438 312.505 C 315.307 312.374,315.200 312.667,315.200 313.157 M130.037 316.700 C 130.603 318.196,131.864 319.474,133.249 319.957 L 134.400 320.358 134.400 317.979 L 134.400 315.600 132.010 315.600 L 129.620 315.600 130.037 316.700 M212.926 315.860 C 213.069 316.002,213.586 316.319,214.076 316.563 C 214.565 316.807,215.090 317.455,215.243 318.003 C 215.495 318.909,215.524 318.920,215.560 318.133 C 215.613 316.984,215.198 315.954,214.786 316.209 C 214.604 316.321,214.342 316.230,214.204 316.007 C 214.066 315.783,213.663 315.600,213.310 315.600 C 212.956 315.600,212.783 315.717,212.926 315.860 M257.200 316.000 C 257.200 316.220,257.740 316.400,258.400 316.400 C 259.060 316.400,259.600 316.220,259.600 316.000 C 259.600 315.780,259.060 315.600,258.400 315.600 C 257.740 315.600,257.200 315.780,257.200 316.000 M307.676 317.276 C 306.977 318.694,306.327 319.357,305.012 319.994 C 304.055 320.458,303.169 321.103,303.045 321.428 C 302.864 321.900,302.972 321.936,303.583 321.609 C 304.003 321.384,304.899 321.200,305.574 321.200 C 307.656 321.200,309.031 319.173,308.731 316.548 C 308.604 315.435,308.572 315.457,307.676 317.276 M254.100 316.482 C 253.864 316.767,253.768 317.506,253.887 318.124 L 254.102 319.248 254.559 318.332 C 254.810 317.828,255.462 317.190,256.008 316.914 C 256.684 316.572,256.788 316.410,256.333 316.406 C 255.966 316.403,255.410 316.302,255.097 316.182 C 254.784 316.062,254.335 316.197,254.100 316.482 M226.119 317.984 C 224.930 318.709,223.600 320.607,223.600 321.580 C 223.600 321.863,227.126 322.000,234.400 322.000 C 246.187 322.000,245.854 322.078,244.390 319.676 C 243.082 317.531,241.705 317.200,234.113 317.201 C 228.161 317.203,227.255 317.291,226.119 317.984 M253.234 319.200 C 253.222 319.750,253.387 320.470,253.600 320.800 C 254.109 321.587,254.109 320.184,253.600 319.000 C 253.285 318.267,253.254 318.284,253.234 319.200 M136.000 322.220 C 136.000 323.529,138.122 325.818,139.700 326.212 L 140.800 326.487 140.800 324.243 L 140.800 322.000 138.400 322.000 C 137.080 322.000,136.000 322.099,136.000 322.220 M146.812 332.526 C 146.788 333.178,147.640 334.400,148.114 334.394 C 148.449 334.390,148.465 334.296,148.166 334.094 C 147.927 333.932,147.527 333.440,147.278 333.000 C 147.028 332.560,146.819 332.347,146.812 332.526 M276.834 335.862 C 276.377 337.518,274.576 339.600,273.602 339.600 C 273.245 339.600,272.607 339.853,272.184 340.162 C 271.510 340.655,271.685 340.675,273.599 340.328 C 277.161 339.680,277.193 339.646,277.795 335.900 C 278.109 333.950,277.370 333.921,276.834 335.862 M258.540 341.620 C 258.308 341.852,257.061 342.471,255.767 342.997 C 253.243 344.023,252.205 345.135,254.248 344.626 C 256.231 344.131,257.929 343.168,258.586 342.166 C 259.255 341.144,259.237 340.923,258.540 341.620 M255.000 345.009 C 253.129 345.490,253.090 345.525,254.400 345.544 C 255.170 345.555,256.340 345.317,257.000 345.014 C 258.488 344.333,257.638 344.331,255.000 345.009 M167.000 347.200 C 166.120 347.358,165.760 347.525,166.200 347.571 C 166.978 347.654,166.978 347.665,166.229 347.958 C 165.576 348.214,165.740 348.397,167.305 349.154 C 168.722 349.840,169.355 350.468,170.026 351.854 C 171.134 354.142,171.484 353.764,171.831 349.900 L 172.110 346.800 170.355 346.857 C 169.390 346.888,167.880 347.042,167.000 347.200 M228.000 348.414 C 228.000 350.162,228.613 350.199,230.044 348.537 C 231.371 346.995,231.324 346.800,229.624 346.800 L 228.000 346.800 228.000 348.414 M234.480 357.100 L 234.600 359.400 237.118 359.434 C 238.502 359.453,239.482 359.363,239.295 359.234 C 239.108 359.106,238.719 358.417,238.430 357.704 C 237.934 356.476,235.858 354.800,234.833 354.800 C 234.510 354.800,234.398 355.530,234.480 357.100 M120.078 357.719 C 118.490 359.358,118.492 359.544,120.119 361.122 C 121.928 362.874,122.000 362.808,122.000 359.400 C 122.000 356.005,121.859 355.882,120.078 357.719 M187.600 359.522 C 187.600 359.911,190.124 362.400,190.519 362.400 C 190.674 362.400,190.800 361.680,190.800 360.800 L 190.800 359.200 189.200 359.200 C 188.320 359.200,187.600 359.345,187.600 359.522 M240.632 360.100 C 240.746 360.375,241.596 360.960,242.520 361.400 C 243.745 361.983,244.417 362.656,245.000 363.886 C 246.079 366.158,246.543 366.029,246.302 363.525 C 246.059 360.988,244.937 359.850,242.914 360.086 C 242.191 360.170,241.600 360.096,241.600 359.920 C 241.600 359.744,241.336 359.600,241.013 359.600 C 240.689 359.600,240.518 359.825,240.632 360.100 M198.400 365.820 C 198.400 367.055,200.430 369.327,202.101 369.962 L 203.200 370.380 203.200 367.990 L 203.200 365.600 200.800 365.600 C 199.480 365.600,198.400 365.699,198.400 365.820 M171.106 367.423 C 170.749 369.416,169.480 370.672,167.387 371.104 C 165.869 371.417,165.795 371.505,165.677 373.116 C 165.528 375.153,165.941 375.228,167.504 373.448 C 168.157 372.704,169.201 371.849,169.823 371.548 C 171.066 370.946,171.731 369.188,171.520 367.058 C 171.400 365.842,171.386 365.854,171.106 367.423 M253.200 370.386 L 253.200 372.000 254.827 372.000 L 256.454 372.000 255.599 370.799 C 254.062 368.641,253.200 368.492,253.200 370.386 M212.800 372.278 C 212.800 372.649,214.873 374.800,215.231 374.800 C 215.386 374.800,215.586 374.170,215.676 373.400 C 215.837 372.017,215.821 372.000,214.320 372.000 C 213.484 372.000,212.800 372.125,212.800 372.278 M215.600 376.520 C 215.600 376.894,215.791 377.200,216.024 377.200 C 216.257 377.200,216.336 377.380,216.200 377.600 C 216.063 377.821,216.355 378.000,216.853 378.000 C 217.614 378.000,217.664 377.923,217.176 377.500 C 216.859 377.225,216.375 376.739,216.100 376.420 C 215.669 375.920,215.600 375.933,215.600 376.520 M231.583 378.769 C 232.585 380.641,233.935 381.200,237.454 381.200 L 240.800 381.200 240.800 379.600 L 240.800 378.000 235.986 378.000 C 231.361 378.000,231.188 378.030,231.583 378.769 M128.436 382.310 C 128.399 383.656,129.444 384.454,131.126 384.364 C 131.497 384.344,131.219 384.160,130.509 383.955 C 129.538 383.674,129.126 383.262,128.845 382.291 L 128.472 381.000 128.436 382.310 M158.600 382.411 C 158.349 383.282,157.950 383.802,157.528 383.805 C 157.159 383.808,156.724 383.943,156.562 384.105 C 156.045 384.621,157.817 384.422,158.558 383.880 C 159.029 383.536,159.223 382.966,159.134 382.191 L 159.000 381.021 158.600 382.411 M240.962 382.861 C 240.633 383.394,241.860 384.415,242.776 384.368 C 243.119 384.351,242.915 384.159,242.322 383.943 C 241.629 383.689,241.324 383.344,241.465 382.974 C 241.728 382.289,241.367 382.207,240.962 382.861 " stroke="none" fill="#1c3c7c" fill-rule="evenodd"></path><path id="path3" d="M288.625 193.296 C 287.721 193.815,286.609 194.957,286.012 195.978 C 285.006 197.700,284.865 197.783,281.554 198.616 C 275.461 200.147,275.048 200.617,274.229 206.928 L 273.668 211.257 271.270 213.528 C 267.988 216.638,267.480 218.860,267.669 229.265 C 267.824 237.820,268.171 238.898,271.551 241.327 C 273.452 242.692,273.548 242.852,273.792 245.077 C 274.234 249.089,275.186 251.254,276.939 252.238 C 277.786 252.713,278.901 253.810,279.417 254.676 C 280.349 256.238,281.522 257.018,284.600 258.122 C 285.651 258.498,286.389 259.091,286.751 259.848 C 288.221 262.924,290.299 263.994,294.809 263.998 C 296.243 263.999,298.671 264.348,300.203 264.772 C 303.442 265.671,303.479 265.662,302.368 264.250 C 301.014 262.529,298.762 261.631,294.765 261.217 C 290.515 260.778,289.603 260.217,289.594 258.038 C 289.585 255.948,289.224 255.632,286.518 255.349 C 284.897 255.180,283.710 254.799,282.975 254.213 L 281.869 253.331 282.735 252.465 C 284.040 251.160,290.000 252.285,290.000 253.837 C 290.000 259.173,315.808 259.600,318.319 254.306 C 318.934 253.009,321.839 251.200,323.306 251.200 C 325.084 251.200,325.829 249.715,326.350 245.126 C 326.844 240.788,327.046 240.376,329.223 239.283 C 332.222 237.778,332.472 236.837,332.328 227.600 L 332.200 219.400 331.016 217.263 C 330.366 216.088,329.443 214.820,328.966 214.445 C 327.880 213.591,326.582 211.077,325.969 208.641 C 325.477 206.687,324.409 205.600,322.981 205.600 C 319.131 205.600,319.830 200.906,323.760 200.373 C 329.270 199.625,329.912 196.508,324.600 196.296 C 322.478 196.211,322.121 196.075,321.518 195.119 C 319.972 192.672,319.567 192.610,304.200 192.496 C 290.302 192.393,290.189 192.399,288.625 193.296 M317.312 195.818 C 318.971 196.945,318.871 198.192,317.088 198.588 C 315.294 198.987,290.837 199.053,290.118 198.660 C 288.629 197.848,288.476 197.070,289.612 196.096 C 290.335 195.477,291.812 195.377,302.912 195.191 C 309.781 195.077,315.493 194.942,315.607 194.891 C 315.721 194.841,316.488 195.258,317.312 195.818 M286.002 202.294 L 286.863 203.388 285.625 204.494 C 284.944 205.102,283.932 205.600,283.376 205.600 C 282.102 205.600,280.400 207.263,280.400 208.507 C 280.400 209.040,279.864 209.961,279.167 210.625 L 277.934 211.800 277.029 210.671 L 276.124 209.542 276.831 206.990 C 277.847 203.325,278.049 203.094,281.070 202.120 C 284.614 200.978,284.977 200.991,286.002 202.294 M316.814 202.216 C 317.095 202.555,317.724 203.693,318.211 204.745 C 318.959 206.360,319.442 206.821,321.311 207.706 C 324.006 208.982,323.828 208.694,324.471 212.816 C 324.969 216.015,325.097 216.298,326.799 217.985 C 330.048 221.205,329.994 221.034,329.997 228.246 C 330.000 234.972,329.531 236.800,327.802 236.800 C 325.706 236.800,324.000 240.302,324.000 244.603 C 324.000 247.527,323.550 248.281,321.493 248.800 C 318.182 249.637,316.536 250.426,315.177 251.829 C 310.958 256.186,295.104 256.909,293.802 252.805 C 293.216 250.958,291.024 249.714,287.468 249.210 C 283.563 248.655,283.259 248.416,282.257 245.104 C 281.805 243.611,281.207 242.562,280.548 242.104 C 276.295 239.151,276.480 239.869,276.319 225.618 L 276.203 215.437 278.143 214.743 C 280.630 213.853,281.333 213.192,282.379 210.760 C 283.124 209.028,283.521 208.639,285.516 207.689 C 287.356 206.812,287.971 206.260,288.682 204.851 C 290.446 201.356,289.325 201.600,303.613 201.600 C 314.554 201.600,316.373 201.685,316.814 202.216 M273.192 219.584 C 274.515 222.178,274.406 234.888,273.046 236.588 L 272.095 237.776 271.249 236.388 C 270.027 234.383,269.984 222.356,271.189 219.700 C 272.134 217.618,272.187 217.615,273.192 219.584 M279.208 245.412 C 280.773 247.945,278.983 250.776,277.228 248.545 C 276.189 247.224,276.189 246.620,277.227 245.162 C 278.251 243.725,278.157 243.713,279.208 245.412 " stroke="none" fill="#6c84ac" fill-rule="evenodd"></path><path id="path4" d="M199.353 35.401 C 199.994 36.763,200.944 37.686,202.400 38.360 L 203.400 38.823 202.400 38.112 C 201.192 37.252,199.978 36.027,199.294 34.976 C 199.006 34.534,199.032 34.717,199.353 35.401 M295.000 36.737 C 293.524 37.639,292.976 38.286,292.398 39.805 C 291.840 41.273,292.250 40.902,293.135 39.138 C 293.501 38.409,294.520 37.407,295.400 36.913 C 296.280 36.418,296.820 36.011,296.600 36.008 C 296.380 36.005,295.660 36.333,295.000 36.737 M253.200 38.655 C 253.200 39.170,255.130 41.003,255.394 40.739 C 255.503 40.631,255.054 40.026,254.396 39.396 C 253.738 38.766,253.200 38.433,253.200 38.655 M274.619 50.021 C 274.997 50.439,275.479 50.675,275.688 50.545 C 276.168 50.249,275.449 49.483,274.569 49.354 C 274.008 49.272,274.014 49.352,274.619 50.021 M278.000 57.400 C 278.000 57.510,278.360 57.960,278.800 58.400 C 279.967 59.567,280.710 59.381,279.600 58.200 C 278.736 57.280,278.000 56.912,278.000 57.400 M228.955 79.300 C 229.244 80.776,230.368 82.468,231.224 82.716 C 231.541 82.808,231.409 82.594,230.931 82.240 C 229.983 81.540,228.991 79.062,229.395 78.408 C 229.534 78.184,229.434 78.000,229.174 78.000 C 228.854 78.000,228.783 78.422,228.955 79.300 M177.600 84.435 C 176.159 84.589,177.124 84.673,180.400 84.680 C 185.279 84.691,185.827 84.548,181.800 84.316 C 180.700 84.252,178.810 84.306,177.600 84.435 M148.558 91.372 C 147.001 92.050,146.081 94.667,147.400 94.667 C 147.730 94.667,148.000 94.517,148.000 94.333 C 148.000 94.150,148.248 94.000,148.551 94.000 C 148.854 94.000,149.349 93.695,149.651 93.323 C 150.024 92.863,150.040 92.743,149.700 92.947 C 149.425 93.112,149.200 93.142,149.200 93.014 C 149.200 92.885,149.661 92.605,150.224 92.391 C 150.787 92.177,151.146 91.837,151.022 91.635 C 150.897 91.433,151.021 91.177,151.298 91.066 C 151.574 90.954,151.350 90.856,150.800 90.847 C 150.250 90.838,149.241 91.075,148.558 91.372 M160.700 91.093 C 161.635 91.177,163.165 91.177,164.100 91.093 C 165.035 91.009,164.270 90.940,162.400 90.940 C 160.530 90.940,159.765 91.009,160.700 91.093 M146.400 95.500 C 146.400 95.738,145.905 96.114,145.300 96.335 C 144.695 96.556,144.481 96.751,144.824 96.768 C 145.654 96.810,147.078 95.745,146.699 95.366 C 146.535 95.201,146.400 95.262,146.400 95.500 M139.000 97.069 C 137.175 97.470,136.118 98.095,135.532 99.117 C 134.901 100.217,134.258 102.800,134.615 102.800 C 135.546 102.800,138.974 99.752,139.900 98.102 C 140.674 96.723,140.657 96.704,139.000 97.069 M34.554 130.800 C 34.554 133.550,34.618 134.675,34.696 133.300 C 34.774 131.925,34.774 129.675,34.696 128.300 C 34.618 126.925,34.554 128.050,34.554 130.800 M328.093 150.000 C 328.093 150.770,328.175 151.085,328.276 150.700 C 328.376 150.315,328.376 149.685,328.276 149.300 C 328.175 148.915,328.093 149.230,328.093 150.000 M346.800 166.212 C 346.800 166.344,347.348 166.913,348.018 167.476 C 349.302 168.557,350.778 171.079,350.832 172.284 C 350.850 172.697,350.948 172.790,351.064 172.503 C 351.374 171.735,350.441 169.310,349.322 167.981 C 348.338 166.811,346.800 165.732,346.800 166.212 M351.714 178.600 C 351.717 179.700,351.795 180.103,351.887 179.495 C 351.979 178.886,351.977 177.986,351.882 177.495 C 351.787 177.003,351.711 177.500,351.714 178.600 M342.101 183.000 C 342.105 183.880,342.187 184.193,342.283 183.695 C 342.379 183.198,342.375 182.478,342.275 182.095 C 342.175 181.713,342.096 182.120,342.101 183.000 M342.400 184.961 C 342.400 185.926,343.851 187.712,345.192 188.396 C 347.329 189.486,347.786 189.406,345.812 188.287 C 344.938 187.793,343.813 186.779,343.312 186.035 C 342.810 185.291,342.400 184.807,342.400 184.961 M350.473 186.199 C 350.222 186.751,349.428 187.561,348.708 187.999 C 347.989 188.438,347.601 188.798,347.846 188.799 C 348.874 188.802,351.627 185.894,351.097 185.364 C 351.005 185.272,350.724 185.648,350.473 186.199 M286.885 192.203 C 286.063 192.560,285.364 193.266,285.020 194.087 C 284.102 196.277,282.899 197.029,279.047 197.819 C 274.015 198.851,273.536 199.533,273.005 206.424 C 272.696 210.434,272.646 210.539,270.748 211.157 C 267.471 212.225,266.816 214.460,266.518 225.600 C 266.178 238.331,267.958 244.800,271.802 244.800 C 272.144 244.800,272.505 245.649,272.780 247.100 C 273.625 251.546,273.943 252.211,276.495 254.878 C 279.367 257.881,280.201 258.400,282.148 258.400 C 284.220 258.400,285.600 259.041,285.600 260.003 C 285.600 261.573,286.728 263.542,288.007 264.204 C 289.099 264.769,301.843 265.842,302.314 265.409 C 302.671 265.082,296.845 264.000,294.718 263.998 C 290.303 263.994,288.211 262.904,286.751 259.848 C 286.389 259.091,285.651 258.498,284.600 258.122 C 281.522 257.018,280.349 256.238,279.417 254.676 C 278.901 253.810,277.786 252.713,276.939 252.238 C 275.186 251.254,274.234 249.089,273.792 245.077 C 273.548 242.852,273.452 242.692,271.551 241.327 C 268.171 238.898,267.824 237.820,267.669 229.265 C 267.480 218.860,267.988 216.638,271.270 213.528 L 273.668 211.257 274.229 206.928 C 275.048 200.617,275.461 200.147,281.554 198.616 C 284.865 197.783,285.006 197.700,286.012 195.978 C 288.111 192.387,288.162 192.377,304.200 192.496 C 319.567 192.610,319.972 192.672,321.518 195.119 C 322.053 195.967,322.502 196.196,323.600 196.180 C 324.370 196.169,325.675 196.280,326.500 196.426 L 328.000 196.693 328.000 194.954 C 328.000 193.016,327.385 192.638,324.294 192.681 C 323.465 192.692,322.115 192.461,321.294 192.168 C 319.042 191.364,288.744 191.395,286.885 192.203 M290.244 202.351 C 289.871 202.764,289.168 203.889,288.682 204.851 C 287.971 206.260,287.356 206.812,285.516 207.689 C 283.521 208.639,283.124 209.028,282.379 210.760 C 281.333 213.192,280.630 213.853,278.143 214.743 L 276.203 215.437 276.319 225.618 C 276.480 239.869,276.295 239.151,280.548 242.104 C 281.207 242.562,281.805 243.611,282.257 245.104 C 283.259 248.416,283.563 248.655,287.468 249.210 C 291.024 249.714,293.216 250.958,293.802 252.805 C 295.104 256.909,310.958 256.186,315.177 251.829 C 316.536 250.426,318.182 249.637,321.493 248.800 C 323.550 248.281,324.000 247.527,324.000 244.603 C 324.000 240.302,325.706 236.800,327.802 236.800 C 329.531 236.800,330.000 234.972,329.997 228.246 C 329.994 221.034,330.048 221.205,326.799 217.985 C 325.097 216.298,324.969 216.015,324.471 212.816 C 323.828 208.694,324.006 208.982,321.311 207.706 C 319.442 206.821,318.959 206.360,318.211 204.745 C 316.637 201.347,317.812 201.600,303.613 201.600 C 291.708 201.600,290.882 201.646,290.244 202.351 M316.368 203.300 C 316.562 203.795,316.927 204.973,317.181 205.918 C 317.674 207.753,318.244 208.161,320.921 208.597 C 322.714 208.888,322.678 208.812,323.179 213.327 C 323.673 217.784,324.782 219.998,326.800 220.561 C 328.786 221.114,328.787 221.120,328.794 228.251 C 328.801 235.309,328.798 235.316,326.371 235.753 C 324.133 236.155,323.156 238.261,322.846 243.350 L 322.600 247.400 319.400 247.917 C 315.067 248.617,312.817 249.767,311.800 251.800 C 310.676 254.047,310.902 253.987,303.533 253.994 C 296.263 254.001,295.600 253.895,295.600 252.737 C 295.600 249.840,292.688 248.026,288.000 248.003 C 284.221 247.984,283.949 247.795,283.556 244.919 C 283.192 242.258,281.612 239.116,280.121 238.088 C 277.373 236.193,277.523 236.891,277.668 226.609 C 277.813 216.339,277.906 215.959,280.390 215.462 C 282.057 215.129,283.105 213.783,283.617 211.320 C 284.098 209.000,284.827 208.400,287.164 208.400 C 288.616 208.400,289.551 207.317,290.159 204.932 L 290.652 203.000 303.026 202.791 C 309.832 202.677,315.539 202.542,315.709 202.491 C 315.878 202.441,316.175 202.805,316.368 203.300 M93.176 210.504 C 91.316 211.758,91.118 213.067,91.275 223.065 L 91.408 231.530 92.521 232.562 C 93.133 233.129,94.121 233.700,94.717 233.830 C 95.313 233.960,96.025 234.136,96.300 234.221 C 97.242 234.511,95.623 231.644,94.052 230.238 C 93.583 229.819,93.200 229.234,93.200 228.938 C 93.200 228.642,93.040 228.400,92.845 228.400 C 92.141 228.400,91.494 223.231,91.783 219.917 C 92.135 215.887,92.266 215.547,94.748 212.269 L 96.768 209.600 95.643 209.600 C 95.024 209.600,93.914 210.007,93.176 210.504 M34.514 234.200 C 34.517 235.300,34.595 235.703,34.687 235.095 C 34.779 234.486,34.777 233.586,34.682 233.095 C 34.587 232.603,34.511 233.100,34.514 234.200 M97.237 257.600 C 97.219 257.930,97.366 258.830,97.563 259.600 C 97.761 260.370,98.030 261.483,98.162 262.073 C 98.428 263.264,100.003 264.539,101.721 264.955 C 103.036 265.273,102.686 264.157,100.964 262.542 C 100.461 262.070,100.158 261.575,100.291 261.442 C 100.424 261.309,100.233 261.200,99.867 261.200 C 99.500 261.200,99.200 260.939,99.200 260.620 C 99.200 260.301,98.924 259.885,98.586 259.696 C 98.248 259.507,97.813 258.823,97.620 258.176 C 97.427 257.529,97.254 257.270,97.237 257.600 M103.619 276.200 C 103.609 276.794,104.323 277.810,104.574 277.559 C 104.694 277.440,104.529 276.995,104.209 276.571 C 103.888 276.147,103.622 275.980,103.619 276.200 M84.493 280.800 C 84.493 281.570,84.575 281.885,84.676 281.500 C 84.776 281.115,84.776 280.485,84.676 280.100 C 84.575 279.715,84.493 280.030,84.493 280.800 M320.011 293.861 C 323.054 295.896,323.522 296.707,322.400 298.000 C 321.960 298.507,321.621 299.390,321.646 299.961 C 321.683 300.788,321.732 300.837,321.885 300.200 C 321.991 299.760,322.528 298.922,323.078 298.338 C 324.408 296.925,324.062 295.980,321.648 294.431 C 319.689 293.174,318.217 292.662,320.011 293.861 M306.800 316.133 C 306.800 316.655,305.398 318.193,303.800 319.427 C 303.041 320.013,303.051 320.020,304.000 319.571 C 305.863 318.689,308.360 315.600,307.210 315.600 C 306.985 315.600,306.800 315.840,306.800 316.133 M275.542 336.761 C 275.165 337.424,274.268 338.140,273.442 338.439 C 272.649 338.726,272.000 339.095,272.000 339.260 C 272.000 339.424,272.538 339.371,273.196 339.141 C 274.358 338.736,276.400 336.715,276.400 335.969 C 276.400 335.383,276.244 335.527,275.542 336.761 M169.254 368.872 C 168.733 369.514,167.784 370.143,167.145 370.271 C 166.005 370.499,165.132 371.200,165.989 371.200 C 167.046 371.200,169.196 369.978,169.823 369.021 C 170.778 367.563,170.397 367.463,169.254 368.872 " stroke="none" fill="#244484" fill-rule="evenodd"></path></g></svg>